# xmcd CD database file
#
# Track frame offsets:
#	182
#	13430
#	32987
#	54397
#	68867
#	83547
#	102590
#	119505
#	145140
#	159407
#
# Disc length: 2352 seconds
#
# Revision: 2
# Processed by: cddbd v1.4PL0 Copyright (c) Steve Scherf et al.
# Submitted via: jetAudio 5
#
DISCID=88092e0a
DTITLE=Otis Grand - Always Hot
DYEAR=1997
DGENRE=
TTITLE0=Love at First sight
TTITLE1=Woke up this morning
TTITLE2=Fix our love
TTITLE3=Always Hot
TTITLE4=Shame Shame Shame
TTITLE5=Whole lotta lovin' 
TTITLE6=Rebecca
TTITLE7=Don't know why
TTITLE8=Let's Party
TTITLE9=No Alibi
EXTD=1997submitted by Stamppot
EXTT0=
EXTT1=
EXTT2=
EXTT3=
EXTT4=
EXTT5=
EXTT6=
EXTT7=
EXTT8=
EXTT9=
PLAYORDER=
